<?xml version="1.0" standalone="no"?>
<!DOCTYPE svg PUBLIC "-//W3C//DTD SVG 20010904//EN"
 "http://www.w3.org/TR/2001/REC-SVG-20010904/DTD/svg10.dtd">
<svg version="1.0" xmlns="http://www.w3.org/2000/svg"
 width="196.000000pt" height="154.000000pt" viewBox="0 0 196.000000 154.000000"
 preserveAspectRatio="xMidYMid meet">

<g transform="translate(0.000000,154.000000) scale(0.100000,-0.100000)"
fill="#000000" stroke="none">
<path d="M364 1141 c-91 -41 -107 -91 -102 -322 3 -171 4 -177 30 -216 44 -67
78 -77 264 -81 190 -4 233 4 285 57 51 51 63 114 56 302 -5 154 -13 183 -59
226 -48 45 -86 53 -265 53 -142 0 -174 -3 -209 -19z m228 -167 c58 -29 87 -30
121 -4 53 42 88 13 39 -31 -56 -50 -93 -49 -210 2 l-53 23 -42 -22 c-53 -28
-69 -28 -65 0 2 14 19 30 48 45 52 28 87 25 162 -13z m-8 -109 c68 -30 102
-31 136 -5 27 21 46 25 54 11 11 -18 -7 -42 -45 -61 -52 -27 -85 -25 -167 10
-74 31 -87 31 -134 -3 -52 -38 -67 7 -15 47 42 34 97 34 171 1z m-6 -110 c66
-31 111 -32 146 -4 21 17 30 19 41 9 34 -28 -33 -80 -102 -80 -21 0 -62 11
-91 25 -66 30 -101 32 -136 4 -15 -11 -34 -18 -42 -15 -44 17 33 86 95 86 20
0 60 -11 89 -25z"/>
<path d="M1515 1000 c-36 -15 -65 -55 -74 -107 -11 -57 -2 -136 20 -171 31
-49 132 -68 204 -38 l35 15 0 70 0 71 -60 0 c-53 0 -60 -2 -60 -19 0 -15 8
-21 33 -23 28 -3 32 -7 35 -36 3 -27 -1 -34 -25 -43 -33 -12 -86 -4 -107 17
-23 22 -38 91 -31 136 11 60 44 93 94 92 24 -1 50 -9 60 -19 16 -13 23 -14 41
-5 17 9 19 14 9 26 -32 39 -121 56 -174 34z"/>
<path d="M1050 841 c0 -149 1 -159 19 -164 11 -3 22 -2 25 1 3 3 6 56 6 119 0
62 3 113 8 113 4 0 24 -34 45 -75 22 -41 45 -75 53 -75 7 0 29 31 49 69 19 38
39 72 45 76 7 4 10 -33 10 -109 0 -63 4 -117 9 -120 5 -4 16 -3 25 0 14 5 16
29 16 165 l0 159 -33 0 c-31 0 -35 -4 -67 -71 -19 -38 -40 -75 -47 -80 -9 -8
-22 10 -53 70 -39 78 -41 81 -75 81 l-35 0 0 -159z"/>
</g>
</svg>
